<svg xmlns="http://www.w3.org/2000/svg" viewBox="0 0 64 64">
  <defs>
    <radialGradient id="p" cx="50%" cy="50%" r="50%">
      <stop offset="0%" stop-color="#7EB5D6"/>
      <stop offset="100%" stop-color="#3A6B8C"/>
    </radialGradient>
  </defs>
  <!-- planet -->
  <circle cx="32" cy="42" r="18" fill="url(#p)" opacity="0.85"/>
  <!-- grass tufts -->
  <path d="M22 30 Q20 22 24 26 Q21 18 26 24" stroke="#8BAA7F" stroke-width="1.5" fill="none" stroke-linecap="round"/>
  <path d="M40 33 Q39 26 42 30 Q40 23 44 28" stroke="#8BAA7F" stroke-width="1.5" fill="none" stroke-linecap="round"/>
  <!-- figure -->
  <line x1="31" y1="30" x2="29" y2="22" stroke="#F2C94C" stroke-width="1.8" stroke-linecap="round"/>
  <line x1="34" y1="30" x2="36" y2="22" stroke="#F2C94C" stroke-width="1.8" stroke-linecap="round"/>
  <line x1="32" y1="22" x2="32" y2="12" stroke="#F2C94C" stroke-width="1.8" stroke-linecap="round"/>
  <!-- scarf -->
  <path d="M32 15 Q38 11 42 5 Q44 1 41 0" stroke="#D4734E" stroke-width="1.2" fill="none" stroke-linecap="round"/>
  <!-- arms -->
  <line x1="32" y1="17" x2="27" y2="14" stroke="#F2C94C" stroke-width="1.3" stroke-linecap="round"/>
  <line x1="32" y1="17" x2="37" y2="14" stroke="#F2C94C" stroke-width="1.3" stroke-linecap="round"/>
  <!-- head -->
  <circle cx="32" cy="8" r="4" fill="#F2C94C" opacity="0.9"/>
  <!-- hair -->
  <path d="M28 6 Q26 0 29 4 Q25 -2 30 3" stroke="#F2C94C" stroke-width="1" fill="none" stroke-linecap="round"/>
  <path d="M36 6 Q38 0 35 4 Q39 -2 34 3" stroke="#F2C94C" stroke-width="1" fill="none" stroke-linecap="round"/>
  <path d="M32 5 Q31 -2 33 3" stroke="#F2C94C" stroke-width="1" fill="none" stroke-linecap="round"/>
  <!-- rose -->
  <line x1="22" y1="32" x2="22" y2="26" stroke="#6B8B5E" stroke-width="1" stroke-linecap="round"/>
  <circle cx="22" cy="24" r="2.5" fill="#C75B6F" opacity="0.8"/>
  <circle cx="22" cy="24" r="1.2" fill="#E8A0AE" opacity="0.6"/>
  <!-- star -->
  <circle cx="50" cy="8" r="1.5" fill="#FFF3C4"/>
</svg>
